<svg xmlns="http://www.w3.org/2000/svg" xmlns:xlink="http://www.w3.org/1999/xlink" viewBox="0 0 480 591.25" version="1.1" x="0px" y="0px"><title>pickup goods</title><desc>Created with Sketch.</desc><g stroke="none" stroke-width="1" fill="none" fill-rule="evenodd"><circle fill="#000000" cx="295" cy="79" r="26"/><path d="M253,130.501777 L253,114.997537 C253,112.243242 250.762526,110 248.002463,110 L116.997537,110 C114.243242,110 112,112.237474 112,114.997537 L112,246.002463 C112,248.756758 114.237474,251 116.997537,251 L248.002463,251 C250.756758,251 253,248.762526 253,246.002463 L253,184.718157 L226.277049,210.524211 C218.531285,218.004208 206.18907,217.789489 198.706265,210.040817 C191.225105,202.29385 191.437936,189.951571 199.185373,182.469959 L253,130.501777 Z" fill="#000000"/><rect fill="#000000" x="266" y="111" width="58" height="167" rx="29"/><rect fill="#000000" transform="translate(311.191074, 330.356952) rotate(-3.000000) translate(-311.191074, -330.356952) " x="294.191074" y="238.856952" width="34" height="183" rx="17"/><rect fill="#000000" transform="translate(246.869977, 163.561862) rotate(46.000000) translate(-246.869977, -163.561862) " x="234.369977" y="103.061862" width="25" height="121" rx="12.5"/><rect fill="#000000" transform="translate(266.191074, 330.356952) rotate(12.000000) translate(-266.191074, -330.356952) " x="249.191074" y="238.856952" width="34" height="183" rx="17"/></g><text x="0" y="488" fill="#000000" font-size="5px" font-weight="bold" font-family="'Helvetica Neue', Helvetica, Arial-Unicode, Arial, Sans-serif">Created by Dominik Grob</text><text x="0" y="493" fill="#000000" font-size="5px" font-weight="bold" font-family="'Helvetica Neue', Helvetica, Arial-Unicode, Arial, Sans-serif">from the Noun Project</text></svg>