<svg xmlns="http://www.w3.org/2000/svg" xmlns:xlink="http://www.w3.org/1999/xlink" version="1.1" x="0px" y="0px" viewBox="0 0 100 125" style="enable-background:new 0 0 100 100;" xml:space="preserve"><g><path d="M80.6,7H55.8H44.2H19.4c-1.2,0-2.2,0.4-3.1,1.3c-0.9,0.8-1.3,1.9-1.3,3v24.4v53c0,1.2,0.4,2.2,1.3,3   c0.9,0.8,1.9,1.3,3.1,1.3h61.2c1.2,0,2.2-0.4,3.1-1.3c0.9-0.8,1.3-1.9,1.3-3v-53V11.3c0-1.2-0.4-2.2-1.3-3C82.9,7.4,81.8,7,80.6,7z    M53,73.5c0,0.4-0.1,0.8-0.4,1.1c-0.3,0.3-0.6,0.4-1.1,0.4h-18c-0.4,0-0.8-0.1-1.1-0.4C32.1,74.3,32,74,32,73.5v-3   c0-0.4,0.1-0.8,0.4-1.1c0.3-0.3,0.6-0.4,1.1-0.4h18c0.4,0,0.8,0.1,1.1,0.4c0.3,0.3,0.4,0.6,0.4,1.1V73.5z M53,61.5   c0,0.4-0.1,0.8-0.4,1.1c-0.3,0.3-0.6,0.4-1.1,0.4h-18c-0.4,0-0.8-0.1-1.1-0.4C32.1,62.3,32,62,32,61.5v-3c0-0.4,0.1-0.8,0.4-1.1   c0.3-0.3,0.6-0.4,1.1-0.4h18c0.4,0,0.8,0.1,1.1,0.4c0.3,0.3,0.4,0.6,0.4,1.1V61.5z M53,50.5c0,0.4-0.1,0.8-0.4,1.1   c-0.3,0.3-0.6,0.4-1.1,0.4h-18c-0.4,0-0.8-0.1-1.1-0.4C32.1,51.3,32,51,32,50.5v-3c0-0.4,0.1-0.8,0.4-1.1c0.3-0.3,0.6-0.4,1.1-0.4   h18c0.4,0,0.8,0.1,1.1,0.4c0.3,0.3,0.4,0.6,0.4,1.1V50.5z M53,39.5c0,0.4-0.1,0.8-0.4,1.1c-0.3,0.3-0.6,0.4-1.1,0.4h-18   c-0.4,0-0.8-0.1-1.1-0.4C32.1,40.3,32,40,32,39.5v-3c0-0.4,0.1-0.8,0.4-1.1c0.3-0.3,0.6-0.4,1.1-0.4h18c0.4,0,0.8,0.1,1.1,0.4   c0.3,0.3,0.4,0.6,0.4,1.1V39.5z M53,28.5c0,0.4-0.1,0.8-0.4,1.1c-0.3,0.3-0.6,0.4-1.1,0.4h-18c-0.4,0-0.8-0.1-1.1-0.4   C32.1,29.3,32,29,32,28.5v-3c0-0.4,0.1-0.8,0.4-1.1c0.3-0.3,0.6-0.4,1.1-0.4h18c0.4,0,0.8,0.1,1.1,0.4c0.3,0.3,0.4,0.6,0.4,1.1   V28.5z M70.4,70.2l-5.6,5.4c-0.1,0.1-0.3,0.2-0.5,0.2c-0.2,0-0.3-0.1-0.5-0.2l-3.2-3.1c-0.1-0.1-0.2-0.3-0.2-0.5   c0-0.2,0.1-0.3,0.2-0.5l0.9-0.9c0.1-0.1,0.3-0.2,0.5-0.2s0.3,0.1,0.5,0.2l1.8,1.8l4.2-4.1c0.1-0.1,0.3-0.2,0.5-0.2s0.3,0.1,0.5,0.2   l0.9,0.9c0.1,0.1,0.2,0.3,0.2,0.5C70.6,69.9,70.5,70.1,70.4,70.2z M70.4,58.7l-5.6,5.4c-0.1,0.1-0.3,0.2-0.5,0.2   c-0.2,0-0.3-0.1-0.5-0.2L60.6,61c-0.1-0.1-0.2-0.3-0.2-0.5c0-0.2,0.1-0.3,0.2-0.5l0.9-0.9c0.1-0.1,0.3-0.2,0.5-0.2s0.3,0.1,0.5,0.2   l1.8,1.8l4.2-4.1c0.1-0.1,0.3-0.2,0.5-0.2s0.3,0.1,0.5,0.2l0.9,0.9c0.1,0.1,0.2,0.3,0.2,0.5C70.6,58.4,70.5,58.6,70.4,58.7z    M70.4,47.3l-5.6,5.4c-0.1,0.1-0.3,0.2-0.5,0.2c-0.2,0-0.3-0.1-0.5-0.2l-3.2-3.1c-0.1-0.1-0.2-0.3-0.2-0.5c0-0.2,0.1-0.3,0.2-0.5   l0.9-0.9c0.1-0.1,0.3-0.2,0.5-0.2s0.3,0.1,0.5,0.2l1.8,1.8l4.2-4.1c0.1-0.1,0.3-0.2,0.5-0.2s0.3,0.1,0.5,0.2l0.9,0.9   c0.1,0.1,0.2,0.3,0.2,0.5C70.6,47,70.5,47.1,70.4,47.3z M70.4,35.8l-5.6,5.4c-0.1,0.1-0.3,0.2-0.5,0.2c-0.2,0-0.3-0.1-0.5-0.2   l-3.2-3.1c-0.1-0.1-0.2-0.3-0.2-0.5c0-0.2,0.1-0.3,0.2-0.5l0.9-0.9c0.1-0.1,0.3-0.2,0.5-0.2s0.3,0.1,0.5,0.2l1.8,1.8l4.2-4.1   c0.1-0.1,0.3-0.2,0.5-0.2s0.3,0.1,0.5,0.2l0.9,0.9c0.1,0.1,0.2,0.3,0.2,0.5C70.6,35.5,70.5,35.7,70.4,35.8z M70.4,24.3l-5.6,5.4   c-0.1,0.1-0.3,0.2-0.5,0.2c-0.2,0-0.3-0.1-0.5-0.2l-3.2-3.1c-0.1-0.1-0.2-0.3-0.2-0.5c0-0.2,0.1-0.3,0.2-0.5l0.9-0.9   c0.1-0.1,0.3-0.2,0.5-0.2s0.3,0.1,0.5,0.2l1.8,1.8l4.2-4.1c0.1-0.1,0.3-0.2,0.5-0.2s0.3,0.1,0.5,0.2l0.9,0.9   c0.1,0.1,0.2,0.3,0.2,0.5C70.6,24,70.5,24.2,70.4,24.3z"/></g><text x="0" y="115" fill="#000000" font-size="5px" font-weight="bold" font-family="'Helvetica Neue', Helvetica, Arial-Unicode, Arial, Sans-serif">Created by Trident</text><text x="0" y="120" fill="#000000" font-size="5px" font-weight="bold" font-family="'Helvetica Neue', Helvetica, Arial-Unicode, Arial, Sans-serif">from the Noun Project</text></svg>